<svg width="914" height="400" fill="none" xmlns="http://www.w3.org/2000/svg"><style>#CL0 {fill: #00ACD7;}#CL1 {fill: #333;}@media (prefers-color-scheme: dark) {#CL0 {fill: #00ACD7;}#CL1 {fill: #EEE;}}</style><path d="M403.558 208v-3.64l7.616-8.12h-7.336v-3.64h12.292v3.64l-7.616 8.12h7.924V208h-12.88Zm15.669 0v-3.78h5.096v-7.84h-4.536v-3.78h8.736v11.62h4.424V208h-13.72Zm7-17.836c-.765 0-1.381-.196-1.848-.588-.448-.392-.672-.924-.672-1.596s.224-1.204.672-1.596c.467-.392 1.083-.588 1.848-.588.766 0 1.372.196 1.82.588.467.392.7.924.7 1.596s-.233 1.204-.7 1.596c-.448.392-1.054.588-1.82.588Zm8.557 22.876V192.6h4.06v3.22h.98l-1.372 2.1c0-1.717.411-3.08 1.232-4.088.84-1.008 1.97-1.512 3.388-1.512.99 0 1.858.261 2.604.784.747.504 1.326 1.204 1.736 2.1.43.896.644 1.941.644 3.136v3.92c0 1.176-.214 2.221-.644 3.136-.41.896-.989 1.605-1.736 2.128-.746.504-1.614.756-2.604.756-1.418 0-2.548-.504-3.388-1.512-.821-1.008-1.232-2.371-1.232-4.088l1.372 2.128h-.98l.14 4.032v4.2h-4.2Zm6.664-8.4c.766 0 1.354-.215 1.764-.644.43-.448.644-1.073.644-1.876v-3.64c0-.821-.214-1.447-.644-1.876-.41-.429-.998-.644-1.764-.644-.802 0-1.418.233-1.848.7-.41.448-.616 1.101-.616 1.96v3.36c0 .859.206 1.521.616 1.988.43.448 1.046.672 1.848.672Zm10.965 3.36 7.616-16.8h-5.628v3.36h-4.2v-7h14.364v3.612L457.005 208h-4.592Z" id="CL1"/><path d="M472.675 208.28c-.71 0-1.288-.215-1.736-.644-.43-.429-.644-.98-.644-1.652 0-.709.214-1.288.644-1.736.448-.448 1.026-.672 1.736-.672.709 0 1.278.224 1.708.672.448.448.672 1.027.672 1.736 0 .672-.224 1.223-.672 1.652-.43.429-.999.644-1.708.644Zm11.721 4.76v-2.464h4.34c.84 0 1.512-.243 2.016-.728.504-.467.756-1.111.756-1.932v-1.288l.056-2.66h-.028c-.187.952-.644 1.689-1.372 2.212-.71.523-1.624.784-2.744.784-1.587 0-2.838-.504-3.752-1.512-.915-1.027-1.372-2.427-1.372-4.2v-3.164c0-1.773.457-3.173 1.372-4.2.914-1.045 2.165-1.568 3.752-1.568 1.082 0 1.978.261 2.688.784.728.523 1.194 1.241 1.4 2.156h.028v-2.66h2.716v15.344c0 1.568-.495 2.809-1.484 3.724-.99.915-2.334 1.372-4.032 1.372h-4.34Zm3.892-8.4c.989 0 1.773-.308 2.352-.924.578-.616.868-1.484.868-2.604v-2.884c0-1.101-.29-1.96-.868-2.576-.579-.616-1.363-.924-2.352-.924-1.027 0-1.82.299-2.38.896-.56.579-.84 1.372-.84 2.38v3.36c0 1.008.28 1.811.84 2.408.56.579 1.353.868 2.38.868Zm15.725 3.584c-1.886 0-3.388-.541-4.508-1.624-1.102-1.083-1.652-2.595-1.652-4.536v-3.528c0-1.941.55-3.453 1.652-4.536 1.12-1.083 2.622-1.624 4.508-1.624 1.885 0 3.378.541 4.48 1.624 1.12 1.083 1.68 2.595 1.68 4.536v3.528c0 1.941-.56 3.453-1.68 4.536-1.102 1.083-2.595 1.624-4.48 1.624Zm0-2.436c1.045 0 1.866-.289 2.464-.868.616-.597.924-1.465.924-2.604v-4.032c0-1.139-.308-1.997-.924-2.576-.598-.597-1.419-.896-2.464-.896-1.046 0-1.876.299-2.492.896-.598.579-.896 1.437-.896 2.576v4.032c0 1.139.298 2.007.896 2.604.616.579 1.446.868 2.492.868Z" id="CL0"/></svg>