<svg width="914" height="400" fill="none" xmlns="http://www.w3.org/2000/svg"><style>#CL0 {fill: #00ACD7;}#CL1 {fill: #333;}@media (prefers-color-scheme: dark) {#CL0 {fill: #00ACD7;}#CL1 {fill: #EEE;}}</style><path d="M408.311 204.951h8.709V208h-13.904v-2.352l8.285-9.351h-8.094v-3.09h13.371v2.283l-8.367 9.461Zm11.827-11.744h8.053v11.703h4.006V208h-12.059v-3.09h4.211v-8.599h-4.211v-3.104Zm3.938-3.787c0-.292.05-.561.15-.807.11-.255.26-.474.451-.656.192-.173.42-.31.684-.41.274-.1.574-.151.902-.151.675 0 1.208.192 1.6.575.401.373.602.856.602 1.449 0 .592-.201 1.08-.602 1.463-.392.374-.925.56-1.6.56a2.61 2.61 0 0 1-.902-.15 2.025 2.025 0 0 1-.684-.424 1.863 1.863 0 0 1-.451-.629c-.1-.255-.15-.528-.15-.82Zm10.802 24.268v-20.481h3.513l.137 1.449a4.47 4.47 0 0 1 .656-.656 4.36 4.36 0 0 1 .766-.52 4.471 4.471 0 0 1 1.08-.396 5.3 5.3 0 0 1 1.285-.15c.939 0 1.769.182 2.489.546.72.356 1.326.862 1.818 1.518.492.665.861 1.463 1.107 2.393.256.92.383 1.941.383 3.062v.287c0 1.076-.127 2.074-.383 2.994-.246.921-.61 1.714-1.093 2.379a5.326 5.326 0 0 1-1.819 1.586c-.72.383-1.545.574-2.474.574-.493 0-.948-.054-1.368-.164-.41-.1-.793-.25-1.148-.451a5.44 5.44 0 0 1-.602-.424 4.92 4.92 0 0 1-.546-.519v6.973h-3.801Zm9.433-13.235a8.09 8.09 0 0 0-.177-1.736 4.533 4.533 0 0 0-.52-1.422 2.785 2.785 0 0 0-.943-.93c-.374-.228-.83-.342-1.367-.342-.31 0-.593.032-.848.096a2.76 2.76 0 0 0-.697.246 2.49 2.49 0 0 0-.629.479 2.932 2.932 0 0 0-.451.67v6.179c.118.237.259.452.423.643.174.191.37.355.588.492.21.128.451.228.725.301.273.064.579.096.916.096.538 0 .993-.119 1.367-.356a2.71 2.71 0 0 0 .93-.971c.237-.41.41-.884.519-1.421a8.8 8.8 0 0 0 .164-1.737v-.287Zm19.21-10.24L455.77 208h-4.006l7.765-16.803h-9.994v-3.103h13.986v2.119Z" id="CL1"/><path d="M470.482 206.031c0-.629.2-1.166.601-1.613.41-.447.998-.67 1.764-.67.747 0 1.331.223 1.75.67.419.437.629.975.629 1.613s-.215 1.171-.643 1.6c-.419.428-.998.642-1.736.642-.748 0-1.331-.214-1.75-.642-.41-.438-.615-.971-.615-1.6Zm11.198-5.537c0-1.121.137-2.142.41-3.062.273-.93.67-1.728 1.19-2.393a5.442 5.442 0 0 1 1.873-1.545c.738-.374 1.567-.56 2.488-.56.547 0 1.043.059 1.49.177.447.11.852.274 1.217.493.237.136.46.3.67.492.209.182.405.383.588.601l.136-1.49h2.967v14.383c0 .993-.164 1.873-.492 2.639a5.459 5.459 0 0 1-1.354 1.968c-.592.529-1.303.93-2.132 1.203-.821.283-1.728.424-2.721.424-.419 0-.88-.045-1.381-.136a8.583 8.583 0 0 1-1.504-.424 6.974 6.974 0 0 1-1.435-.752 4.915 4.915 0 0 1-1.176-1.121l1.545-1.983a5.145 5.145 0 0 0 1.791 1.395c.319.146.642.25.971.314.328.073.66.11.998.11.583 0 1.098-.082 1.544-.247a3.206 3.206 0 0 0 1.163-.71c.291-.301.515-.67.67-1.108.164-.437.246-.934.246-1.49v-1.026a6.897 6.897 0 0 1-.602.561 3.6 3.6 0 0 1-.656.451 4.425 4.425 0 0 1-1.176.451c-.428.11-.893.164-1.395.164-.911 0-1.731-.186-2.46-.56a5.669 5.669 0 0 1-1.873-1.586c-.511-.665-.907-1.454-1.19-2.365a10.442 10.442 0 0 1-.41-2.981v-.287Zm3.281.287c0 .657.064 1.276.192 1.86.136.583.35 1.089.642 1.517.283.447.643.798 1.08 1.053.438.246.957.369 1.559.369a3.85 3.85 0 0 0 1.012-.123c.309-.082.587-.196.834-.342.246-.155.464-.342.656-.56a4.17 4.17 0 0 0 .506-.725v-6.48a3.311 3.311 0 0 0-.534-.739 3.004 3.004 0 0 0-.697-.56 3.391 3.391 0 0 0-.793-.301 3.52 3.52 0 0 0-.957-.123c-.611 0-1.135.128-1.572.383a3.13 3.13 0 0 0-1.08 1.052 4.806 4.806 0 0 0-.643 1.559 8.233 8.233 0 0 0-.205 1.873v.287Zm12.238-.314c0-1.076.155-2.069.464-2.981a6.92 6.92 0 0 1 1.354-2.392 6.132 6.132 0 0 1 2.146-1.586c.848-.383 1.814-.574 2.899-.574 1.084 0 2.051.191 2.898.574a6.23 6.23 0 0 1 2.174 1.586 7.055 7.055 0 0 1 1.34 2.392c.31.912.465 1.905.465 2.981v.287c0 1.085-.155 2.083-.465 2.994a7.08 7.08 0 0 1-1.34 2.379 6.107 6.107 0 0 1-2.16 1.586c-.848.383-1.809.574-2.885.574-1.084 0-2.055-.191-2.912-.574a6.107 6.107 0 0 1-2.16-1.586 6.943 6.943 0 0 1-1.354-2.379c-.309-.911-.464-1.909-.464-2.994v-.287Zm3.267.287c0 .665.069 1.294.205 1.887.146.592.369 1.112.67 1.558.292.447.666.802 1.121 1.067.456.255.998.382 1.627.382.611 0 1.144-.127 1.6-.382.456-.265.829-.62 1.121-1.067.292-.446.506-.966.642-1.558a7.87 7.87 0 0 0 .219-1.887v-.287c0-.647-.073-1.267-.219-1.86a5.22 5.22 0 0 0-.642-1.558 3.432 3.432 0 0 0-1.135-1.067c-.446-.264-.984-.396-1.613-.396-.62 0-1.158.132-1.613.396a3.35 3.35 0 0 0-1.108 1.067 4.825 4.825 0 0 0-.67 1.558 8.297 8.297 0 0 0-.205 1.86v.287Z" id="CL0"/></svg>