<svg width="914" height="400" fill="none" xmlns="http://www.w3.org/2000/svg">
  <path fill="#fff" d="M0 0h914v400H0z"/>
  <path d="M425.3 209h-12.565v-1.791l7.028-9.023h-6.33V195h11.812v2.133l-6.658 8.681h6.713V209zm3.965-16.215c-.729 0-1.326-.214-1.791-.642a2.114 2.114 0 01-.697-1.6c0-.647.232-1.176.697-1.586.465-.41 1.062-.615 1.791-.615.739 0 1.336.205 1.791.615.465.41.698.939.698 1.586 0 .656-.233 1.194-.698 1.613-.455.42-1.052.629-1.791.629zM431.398 209h-4.32v-14h4.32v14zm7.452-1.627h-.055v8.066h-4.32V195h4.32v2.105h.055c1.066-1.631 2.566-2.447 4.498-2.447 1.814 0 3.213.625 4.197 1.873.994 1.24 1.49 2.931 1.49 5.073 0 2.333-.578 4.206-1.736 5.619-1.148 1.412-2.68 2.119-4.594 2.119-1.686 0-2.971-.656-3.855-1.969zm-.123-5.742v1.121c0 .966.255 1.755.765 2.365.511.611 1.181.916 2.01.916.984 0 1.746-.378 2.283-1.135.547-.765.821-1.845.821-3.24 0-2.461-.957-3.691-2.871-3.691-.885 0-1.609.337-2.174 1.012-.556.665-.834 1.549-.834 2.652zm25.69-9.748a118.452 118.452 0 00-2.352 4.443 48.272 48.272 0 00-1.832 4.088 37.636 37.636 0 00-1.353 4.102 39.207 39.207 0 00-.916 4.484h-4.512a36.7 36.7 0 011.012-4.402c.419-1.413.902-2.78 1.449-4.102a47.062 47.062 0 011.832-3.883 66.156 66.156 0 012.133-3.691h-9.106v-3.527h13.645v2.488z" fill="#333"/>
  <path d="M468.068 209.273c-.365 0-.675-.127-.93-.382a1.268 1.268 0 01-.383-.93c0-.374.123-.688.369-.943.256-.256.57-.383.944-.383.182 0 .351.036.506.109.164.064.305.155.423.274a1.297 1.297 0 01.397.943c0 .182-.037.355-.11.519a1.427 1.427 0 01-.287.411 1.214 1.214 0 01-.423.273 1.173 1.173 0 01-.506.109zm16.352-1.353c0 2.598-.593 4.521-1.778 5.769-1.175 1.258-2.994 1.887-5.455 1.887a9.598 9.598 0 01-4.347-1.025v-1.778c1.522.848 2.971 1.272 4.347 1.272 3.655 0 5.483-1.932 5.483-5.797v-1.682h-.055c-1.075 1.842-2.716 2.762-4.922 2.762-.866 0-1.659-.159-2.379-.478a5.142 5.142 0 01-1.832-1.381c-.51-.602-.907-1.331-1.189-2.188-.283-.866-.424-1.841-.424-2.926 0-1.148.15-2.192.451-3.13.301-.948.729-1.76 1.285-2.434a5.69 5.69 0 012.01-1.559c.793-.373 1.682-.56 2.666-.56 1.978 0 3.423.802 4.334 2.406h.055V195h1.75v12.92zm-1.75-7.424a4.37 4.37 0 00-1.19-3.021 4.098 4.098 0 00-1.34-.93 3.973 3.973 0 00-1.695-.356c-.729 0-1.39.142-1.982.424a4.356 4.356 0 00-1.504 1.203c-.41.52-.729 1.153-.957 1.901-.219.738-.328 1.572-.328 2.502 0 .857.104 1.631.314 2.324.21.693.506 1.281.889 1.764a4 4 0 001.381 1.121 4.128 4.128 0 001.818.396c.693 0 1.322-.123 1.887-.369a4.383 4.383 0 001.449-1.039c.401-.447.711-.966.93-1.559a5.65 5.65 0 00.328-1.941v-2.42zm11.43 8.832c-1.039 0-1.973-.173-2.803-.519a6.04 6.04 0 01-2.105-1.463 6.534 6.534 0 01-1.34-2.284c-.31-.884-.465-1.863-.465-2.939 0-1.167.164-2.21.492-3.131.328-.92.793-1.7 1.395-2.338a6 6 0 012.201-1.476c.857-.338 1.814-.506 2.871-.506 1.012 0 1.923.168 2.734.506.812.328 1.5.806 2.065 1.435s.998 1.395 1.299 2.297c.301.902.451 1.928.451 3.076 0 1.094-.16 2.092-.479 2.994a6.669 6.669 0 01-1.339 2.311 5.981 5.981 0 01-2.133 1.504c-.839.355-1.787.533-2.844.533zm.137-13.139c-.766 0-1.459.133-2.078.397a4.39 4.39 0 00-1.6 1.162c-.438.501-.775 1.121-1.012 1.859-.237.73-.355 1.559-.355 2.489 0 .875.118 1.663.355 2.365.237.702.57 1.303.998 1.805.438.501.966.888 1.586 1.162.62.264 1.313.396 2.078.396.784 0 1.477-.127 2.078-.383a4.208 4.208 0 001.532-1.134c.419-.502.733-1.112.943-1.832.219-.72.328-1.541.328-2.461 0-1.887-.419-3.327-1.258-4.321-.838-1.002-2.037-1.504-3.595-1.504z" fill="#555"/>
</svg>
